<svg xmlns="http://www.w3.org/2000/svg" width="50" height="30" viewBox="0 0 57.691 34.614">
  <path id="tailwindcss-icon_3_" data-name="tailwindcss-icon (3)" d="M14.423,24.338Q17.307,12.8,28.845,12.8c11.538,0,12.98,8.654,18.749,10.1q5.77,1.443,10.1-4.327Q54.807,30.107,43.268,30.107c-11.538,0-12.98-8.654-18.749-10.1q-5.77-1.443-10.1,4.327ZM0,41.645Q2.884,30.108,14.423,30.107c11.538,0,12.98,8.654,18.749,10.1q5.77,1.443,10.1-4.327Q40.384,47.414,28.845,47.414c-11.538,0-12.98-8.654-18.749-10.1Q4.326,35.876,0,41.645Z" transform="translate(0 -12.8)" fill-rule="evenodd"/>
</svg>
